/* XPM */
const char* icon_circle_xpm[] = {
"52 52 2 1",
" 	c None",
".	c #000000",
"                    ............                    ",
"                    ............                    ",
"                    ............                    ",
"                    ............                    ",
"            ........            ........            ",
"            ........            ........            ",
"            ........            ........            ",
"            ........            ........            ",
"        ....                            ....        ",
"        ....                            ....        ",
"        ....                            ....        ",
"        ....                            ....        ",
"    ....                                    ....    ",
"    ....                                    ....    ",
"    ....                                    ....    ",
"    ....                                    ....    ",
"    ....                                    ....    ",
"    ....                                    ....    ",
"    ....                                    ....    ",
"    ....                                    ....    ",
"....                                            ....",
"....                                            ....",
"....                                            ....",
"....                                            ....",
"............................                    ....",
"............................                    ....",
"............................                    ....",
"............................                    ....",
"....                                            ....",
"....                                            ....",
"....                                            ....",
"....                                            ....",
"    ....                                    ....    ",
"    ....                                    ....    ",
"    ....                                    ....    ",
"    ....                                    ....    ",
"    ....                                    ....    ",
"    ....                                    ....    ",
"    ....                                    ....    ",
"    ....                                    ....    ",
"        ....                            ....        ",
"        ....                            ....        ",
"        ....                            ....        ",
"        ....                            ....        ",
"            ........            ........            ",
"            ........            ........            ",
"            ........            ........            ",
"            ........            ........            ",
"                    ............                    ",
"                    ............                    ",
"                    ............                    ",
"                    ............                    "};
