/* XPM */
const char* icon_kinematic_small_xpm[] = {
"16 16 94 2",
"  	c None",
". 	c #191927",
"+ 	c #434375",
"@ 	c #444476",
"# 	c #393962",
"$ 	c #424274",
"% 	c #50508E",
"& 	c #25253F",
"* 	c #8080E5",
"= 	c #6A6ABE",
"- 	c #181826",
"; 	c #7F7FE2",
"> 	c #5B5CA2",
", 	c #24243C",
"' 	c #6C6CC0",
") 	c #080808",
"! 	c #7D7DE1",
"~ 	c #7C7CDE",
"{ 	c #7272CC",
"] 	c #6868B9",
"^ 	c #1B1B2B",
"/ 	c #7A7ADA",
"( 	c #7575D2",
"_ 	c #5C5CA3",
": 	c #8080E4",
"< 	c #454579",
"[ 	c #4D4D88",
"} 	c #7474CE",
"| 	c #6F6FC6",
"1 	c #7E7EE1",
"2 	c #7979D9",
"3 	c #4F508D",
"4 	c #6F6FC7",
"5 	c #6C6CC2",
"6 	c #47477C",
"7 	c #232239",
"8 	c #7877D5",
"9 	c #7373CD",
"0 	c #6E6EC6",
"a 	c #6A6BBE",
"b 	c #6464B3",
"c 	c #212137",
"d 	c #7170CA",
"e 	c #6D6CC1",
"f 	c #6868BA",
"g 	c #5F5FAB",
"h 	c #3C3C6B",
"i 	c #1F1F34",
"j 	c #6666B6",
"k 	c #6161AE",
"l 	c #5E5DA7",
"m 	c #59599F",
"n 	c #4B4B87",
"o 	c #1E1E31",
"p 	c #6363B2",
"q 	c #5F5FAA",
"r 	c #5B5BA3",
"s 	c #555598",
"t 	c #535393",
"u 	c #4E4E8C",
"v 	c #1C1C2E",
"w 	c #5D5DA6",
"x 	c #58599F",
"y 	c #3E3E6E",
"z 	c #202036",
"A 	c #4C4C88",
"B 	c #484880",
"C 	c #3C3C6A",
"D 	c #57579B",
"E 	c #525293",
"F 	c #45467C",
"G 	c #11111A",
"H 	c #46467D",
"I 	c #424275",
"J 	c #3D3E6D",
"K 	c #191929",
"L 	c #50508F",
"M 	c #404073",
"N 	c #3D3C6C",
"O 	c #4A4A84",
"P 	c #45457C",
"Q 	c #383762",
"R 	c #1E1E33",
"S 	c #161623",
"T 	c #434378",
"U 	c #35355F",
"V 	c #09090B",
"W 	c #35355C",
"X 	c #0D0E13",
"Y 	c #1F1E33",
"Z 	c #1F1F33",
"` 	c #1A1A2B",
" .	c #1E1E32",
"..	c #24243E",
"        . + @       # $ %       ",
"        & * * =   - * ; >       ",
"        , * * ' ) ! ~ {         ",
"        , * * ] ^ / ( _         ",
"        , * : < [ } |           ",
"        , 1 2 3 4 5 6           ",
"        7 8 9 0 a b             ",
"        c d e f b g h           ",
"        i a j k l m n           ",
"        o p q r s t u           ",
"        v w x y z A B C         ",
"        ^ D E F G H I J         ",
"        K L A y ) M M N         ",
"        - O P Q   R M M         ",
"        S T M U   V M M W       ",
"        X Y Z     ) `  ...      "};
