/* XPM */
const char* icon_kinematic_xpm[] = {
"52 52 321 2",
"  	c None",
". 	c #080808",
"+ 	c #8080E5",
"@ 	c #7F7FE4",
"# 	c #7E7EE2",
"$ 	c #7C7DDF",
"% 	c #7F7FE3",
"& 	c #7E7EE0",
"* 	c #7C7CDE",
"= 	c #8080E4",
"- 	c #7B7CDD",
"; 	c #7A7ADA",
"> 	c #7E7DE1",
", 	c #7A7BDC",
"' 	c #7A79D9",
") 	c #7F80E4",
"! 	c #7E7EE1",
"~ 	c #7D7CDF",
"{ 	c #7878D7",
"] 	c #7878D5",
"^ 	c #7F7EE3",
"/ 	c #7D7DE0",
"( 	c #7A7BDB",
"_ 	c #7677D4",
": 	c #7C7BDC",
"< 	c #7A7ADB",
"[ 	c #7979D8",
"} 	c #7877D6",
"| 	c #7576D3",
"1 	c #7475D0",
"2 	c #7B7BDB",
"3 	c #7979D9",
"4 	c #7878D6",
"5 	c #7575D1",
"6 	c #7474CF",
"7 	c #7C7DE0",
"8 	c #7C7BDD",
"9 	c #7978D8",
"0 	c #7778D6",
"a 	c #7576D2",
"b 	c #7574D1",
"c 	c #7374CD",
"d 	c #7272CC",
"e 	c #7776D4",
"f 	c #7374CF",
"g 	c #7373CC",
"h 	c #7171CA",
"i 	c #807FE4",
"j 	c #7777D6",
"k 	c #7475D1",
"l 	c #7373CE",
"m 	c #7272CB",
"n 	c #7070C9",
"o 	c #6F6FC6",
"p 	c #7474D0",
"q 	c #7372CD",
"r 	c #7171CB",
"s 	c #6F70C7",
"t 	c #6E6FC5",
"u 	c #7C7CDD",
"v 	c #7877D5",
"w 	c #7676D3",
"x 	c #7374CE",
"y 	c #7071C9",
"z 	c #6E6DC4",
"A 	c #6C6CC2",
"B 	c #7A7ADC",
"C 	c #7A7AD9",
"D 	c #7675D2",
"E 	c #7473CF",
"F 	c #7273CD",
"G 	c #7172CB",
"H 	c #7070C8",
"I 	c #6F6FC5",
"J 	c #6C6DC3",
"K 	c #6B6BC0",
"L 	c #7D7DDF",
"M 	c #7778D5",
"N 	c #7575D0",
"O 	c #7271CC",
"P 	c #6F6FC7",
"Q 	c #6E6EC4",
"R 	c #6B6BBF",
"S 	c #6969BD",
"T 	c #7B7ADB",
"U 	c #7979DA",
"V 	c #7575D2",
"W 	c #6E6EC5",
"X 	c #6D6DC3",
"Y 	c #6C6BC0",
"Z 	c #6A6ABE",
"` 	c #6969BB",
" .	c #7E7FE1",
"..	c #7474D1",
"+.	c #7172CC",
"@.	c #7170C9",
"#.	c #6D6EC4",
"$.	c #6A6BC0",
"%.	c #6A6ABD",
"&.	c #6868BA",
"*.	c #6767B8",
"=.	c #7D7CDE",
"-.	c #7676D5",
";.	c #7272CD",
">.	c #706FC8",
",.	c #6C6CC0",
"'.	c #6968BB",
").	c #6767B9",
"!.	c #6666B7",
"~.	c #7B7ADA",
"{.	c #7777D5",
"].	c #7574D0",
"^.	c #7473CE",
"/.	c #6D6EC5",
"(.	c #6C6DC1",
"_.	c #696ABD",
":.	c #6868BB",
"<.	c #6566B5",
"[.	c #6464B3",
"}.	c #7776D5",
"|.	c #6F6EC5",
"1.	c #6A6BBE",
"2.	c #6869BB",
"3.	c #6867B9",
"4.	c #6565B4",
"5.	c #6463B2",
"6.	c #6262B0",
"7.	c #6061AD",
"8.	c #7271CB",
"9.	c #7171C9",
"0.	c #6D6DC4",
"a.	c #6665B5",
"b.	c #6263B0",
"c.	c #6161AE",
"d.	c #6060AC",
"e.	c #5F5EA9",
"f.	c #6C6CC1",
"g.	c #6B6ABE",
"h.	c #6969BC",
"i.	c #6766B7",
"j.	c #6465B4",
"k.	c #6161AD",
"l.	c #5F5FAB",
"m.	c #5D5EA8",
"n.	c #5C5CA6",
"o.	c #6D6CC2",
"p.	c #6A69BD",
"q.	c #6968BA",
"r.	c #6766B8",
"s.	c #6566B6",
"t.	c #6363B0",
"u.	c #6162AE",
"v.	c #5F5FAA",
"w.	c #5D5DA7",
"x.	c #5C5CA5",
"y.	c #5A5BA2",
"z.	c #6F6EC6",
"A.	c #6B6CC0",
"B.	c #6868B9",
"C.	c #6363B2",
"D.	c #6262AF",
"E.	c #6160AD",
"F.	c #6060AA",
"G.	c #5E5EA8",
"H.	c #5C5DA5",
"I.	c #5B5CA3",
"J.	c #5A5AA1",
"K.	c #59599E",
"L.	c #58589C",
"M.	c #6D6DC2",
"N.	c #6565B6",
"O.	c #5E5DA7",
"P.	c #5B5AA2",
"Q.	c #59599F",
"R.	c #58589D",
"S.	c #57579B",
"T.	c #555599",
"U.	c #6564B4",
"V.	c #6363B1",
"W.	c #5F60AB",
"X.	c #5D5DA6",
"Y.	c #5C5CA3",
"Z.	c #58599F",
"`.	c #57579C",
" +	c #55559A",
".+	c #555497",
"++	c #535395",
"@+	c #6666B6",
"#+	c #6263B1",
"$+	c #5E5FA9",
"%+	c #5C5CA4",
"&+	c #5A5AA2",
"*+	c #5959A0",
"=+	c #555699",
"-+	c #545496",
";+	c #525294",
">+	c #515191",
",+	c #504F8F",
"'+	c #6768BA",
")+	c #6767B6",
"!+	c #605FAB",
"~+	c #5E5EA9",
"{+	c #5D5DA5",
"]+	c #5B5BA4",
"^+	c #595AA1",
"/+	c #58579D",
"(+	c #56569A",
"_+	c #555597",
":+	c #515293",
"<+	c #505090",
"[+	c #4F4F8E",
"}+	c #4E4E8B",
"|+	c #6665B6",
"1+	c #6261AE",
"2+	c #58589E",
"3+	c #56569B",
"4+	c #555698",
"5+	c #525394",
"6+	c #515291",
"7+	c #50508F",
"8+	c #4E4E8C",
"9+	c #4D4D8A",
"0+	c #4C4C88",
"a+	c #5D5CA6",
"b+	c #5B5CA4",
"c+	c #57589C",
"d+	c #535495",
"e+	c #525293",
"f+	c #515190",
"g+	c #4F4F8D",
"h+	c #4D4D89",
"i+	c #4B4B87",
"j+	c #494984",
"k+	c #484981",
"l+	c #4F4F8C",
"m+	c #4B4A85",
"n+	c #494982",
"o+	c #474781",
"p+	c #47467D",
"q+	c #605FAA",
"r+	c #59589F",
"s+	c #565699",
"t+	c #545498",
"u+	c #4D4C88",
"v+	c #4A4984",
"w+	c #484881",
"x+	c #47477F",
"y+	c #45467D",
"z+	c #44457A",
"A+	c #5B5BA2",
"B+	c #595AA0",
"C+	c #56579B",
"D+	c #555598",
"E+	c #535496",
"F+	c #4A4A85",
"G+	c #494983",
"H+	c #484781",
"I+	c #47477D",
"J+	c #45457B",
"K+	c #444479",
"L+	c #424276",
"M+	c #414174",
"N+	c #5A5AA0",
"O+	c #525193",
"P+	c #505190",
"Q+	c #484982",
"R+	c #46457D",
"S+	c #44457B",
"T+	c #434378",
"U+	c #404173",
"V+	c #404073",
"W+	c #535394",
"X+	c #525192",
"Y+	c #4F508F",
"Z+	c #4E4E8D",
"`+	c #484780",
" @	c #46477E",
".@	c #45457C",
"+@	c #44437A",
"@@	c #434277",
"#@	c #555498",
"$@	c #525292",
"%@	c #505091",
"&@	c #46457C",
"*@	c #424275",
"=@	c #414073",
"-@	c #404072",
";@	c #545497",
">@	c #4F4E8D",
",@	c #4A4A86",
"'@	c #434276",
")@	c #414175",
"!@	c #4D4E8C",
"~@	c #494882",
"{@	c #414072",
"]@	c #515292",
"^@	c #4E4F8C",
"/@	c #4E4E8A",
"(@	c #4A4B85",
"_@	c #47477E",
":@	c #404172",
"<@	c #4F508E",
"[@	c #4C4D89",
"}@	c #4B4B86",
"|@	c #494A84",
"1@	c #494981",
"2@	c #46467D",
"3@	c #45447A",
"4@	c #4C4B88",
"5@	c #474881",
"6@	c #46467E",
"7@	c #44447A",
"8@	c #484882",
"9@	c #48487F",
"0@	c #424176",
"a@	c #46457B",
"b@	c #414275",
"c@	c #404174",
"d@	c #414173",
"e@	c #434377",
"f@	c #414074",
"                                                                                                        ",
"                                                                                                        ",
"                          . . . . . . . . . . .             . . . . . . . . . . .                       ",
"                          . + + + + + + + + + .           . . + + + + + + @ # $ .                       ",
"                          . + + + + + + + + + .           . + + + + + + % & * . .                       ",
"                          . + + + + + + + + + .         . . + + + + = # $ - ; .                         ",
"                          . + + + + + + + + + .         . + + + + # > * , ' . .                         ",
"                          . + + + + + + + + + .       . . + + ) ! ~ - ; { ] .                           ",
"                          . + + + + + + + + + .       . + + ^ / * ( ' { _ . .                           ",
"                          . + + + + + + + + + .       . @ # ~ : < [ } | 1 .                             ",
"                          . + + + + + + + + + .     . . / * 2 3 4 _ 5 6 . .                             ",
"                          . + + + + + + + + + .     . 7 8 ; 9 0 a b c d .                               ",
"                          . + + + + + + + + + .   . . 2 3 { e 5 f g h . .                               ",
"                          . + + + + + + + + i .   . < [ j | k l m n o .                                 ",
"                          . + + + + + + + % > . . . { _ a p q r s t . .                                 ",
"                          . + + + + + + # / u . . v w p x d y o z A .                                   ",
"                          . + + + + % ! * B C . . D E F G H I J K . .                                   ",
"                          . + + + # L 8 ; [ M . N l O n P Q A R S .                                     ",
"                          . + % > * T U { _ V . q h H W X Y Z ` . .                                     ",
"                          .  .L - ; [ } w ..x +.@.P #.A $.%.&.*..                                       ",
"                          . =., 3 4 -.V p ;.h >.o J ,.Z '.).!.. .                                       ",
"                          . ~.9 {.w ].^.O @.P /.(.R _.:.*.<.[.. .                                       ",
"                          . { }.D p F r >.|.X ,.1.2.3.!.4.5.6.7..                                       ",
"                          . w 5 l 8.9.P 0.A R _.&.*.a.[.b.c.d.e..                                       ",
"                          . 6 q h >.t X f.g.h.).i.j.5.6.k.l.m.n..                                       ",
"                          . +.h P W o.R p.q.r.s.[.t.u.d.v.w.x.y.. .                                     ",
"                          . H z.X A.g.h.B.!.4.C.D.E.F.G.H.I.J.K.L..                                     ",
"                          . Q M.R %.` *.N.[.t.c.d.e.O.x.P.Q.R.S.T..                                     ",
"                          . A.1.` B.!.U.V.D.k.W.G.X.Y.J.Z.`. +.+++. .                                   ",
"                          . p.` *.@+[.#+u.d.$+w.%+&+*+R.S.=+-+;+>+,+.                                   ",
"                          . '+)+4.V.D.7.!+~+{+]+^+Q./+(+_+++:+<+[+}+.                                   ",
"                          . |+[.V.1+d.e.w.x.y.*+2+3+4+-+5+6+7+8+9+0+. .                                 ",
"                          . V.6.E.l.~+a+b+J.2+c+. . d+e+f+g+}+h+i+j+k+.                                 ",
"                          . u.d.~+O.x.P.Q.2+S.=+. . >+7+l+9+0+m+n+o+p+.                                 ",
"                          . q+G.X.]+J.r+`.s+t+. . . [+}+u+i+v+w+x+y+z+. .                               ",
"                          . w.x.A+B+R.C+D+E+5+.   . . 0+F+G+H+I+J+K+L+M+.                               ",
"                          . b+N+Q.`.(+t+d+O+P+.     . v+Q+x+R+S+T+L+U+V+.                               ",
"                          . Q.2+S.s+-+W+X+Y+Z+.     . `+ @.@+@@@M+V+V+U+.                               ",
"                          . `.(+#@d+$@%@[+}+0+.     . &@S+T+*@=@-@V+-@V+. .                             ",
"                          . T.;@e+>+7+>@9+0+,@.     . . '@)@V+-@V+V+=@V+=@.                             ",
"                          . ++e+f+[+!@h+i+v+~@.       . V+V+-@-@U+V+V+=@{@.                             ",
"                          . ]@7+^@/@0+(@G+w+_@.       . V+=@V+-@V+=@:@=@V+. .                           ",
"                          . <@8+[@}@|@1@x+2@3@.       . . V+V+V+-@V+V+V+V+U+.                           ",
"                          . 9+4@m+G+5@6@J+7@@@.         . V+V+V+-@V+V+=@V+V+.                           ",
"                          . i+v+8@9@2@z+T+0@M+.         . -@=@U+V+=@-@-@V+-@. .                         ",
"                          . G+w+6@a@K+@@b@=@V+.         . . V+-@-@V+V+=@U+-@{@.                         ",
"                          . x+2@7@T+*@c@V+V+V+.           . V+V+V+V+-@V+V+-@d@.                         ",
"                          . .@K+e@M+V+V+V+V+V+.           . V+V+=@V+U+V+-@V+-@. .                       ",
"                          . T+b@f@V+U+-@V+-@V+.           . . =@-@V+V+V+U+V+V+V+.                       ",
"                          . )@V+V+=@d@V+V+-@d@.             . -@-@:@V+-@V+{@V+-@.                       ",
"                          . . . . . . . . . . .             . . . . . . . . . . .                       ",
"                                                                                                        "};
