/* XPM */
const char* icon_dynamic_xpm[] = {
"52 52 321 2",
"  	c None",
". 	c #080808",
"+ 	c #E5B2B2",
"@ 	c #E4B2B2",
"# 	c #E3B0B0",
"$ 	c #E0AEAF",
"% 	c #DEADAD",
"& 	c #E3B1B1",
"* 	c #E1AEAF",
"= 	c #DFAEAE",
"- 	c #DDACAC",
"; 	c #DCABAB",
"> 	c #E2AFAF",
", 	c #E0AEAD",
"' 	c #DEACAC",
") 	c #DCAAAB",
"! 	c #DAA9A9",
"~ 	c #D7A7A8",
"{ 	c #E0AEAE",
"] 	c #DCABAC",
"^ 	c #DAA9AA",
"/ 	c #D9A8A8",
"( 	c #D6A7A6",
"_ 	c #D4A5A5",
": 	c #DDABAB",
"< 	c #DAAAAA",
"[ 	c #D6A7A7",
"} 	c #D5A5A5",
"| 	c #D3A4A3",
"1 	c #D0A3A2",
"2 	c #CFA1A1",
"3 	c #D9A9A9",
"4 	c #D7A7A7",
"5 	c #D5A6A6",
"6 	c #D4A4A4",
"7 	c #D1A3A3",
"8 	c #CD9F9F",
"9 	c #CB9E9F",
"0 	c #D2A3A3",
"a 	c #CDA0A0",
"b 	c #CC9E9F",
"c 	c #CA9D9D",
"d 	c #C89C9C",
"e 	c #E4B1B1",
"f 	c #E2B0AF",
"g 	c #D2A3A4",
"h 	c #D0A2A1",
"i 	c #CEA1A0",
"j 	c #CA9E9E",
"k 	c #C89B9C",
"l 	c #C69A9A",
"m 	c #C59998",
"n 	c #E4B2B1",
"o 	c #E2B0B0",
"p 	c #E1AEAE",
"q 	c #DFADAD",
"r 	c #CFA0A0",
"s 	c #C99C9C",
"t 	c #C79B9B",
"u 	c #C49999",
"v 	c #C39898",
"w 	c #C19696",
"x 	c #DCACAB",
"y 	c #DBAAAA",
"z 	c #CB9E9E",
"A 	c #C79A9B",
"B 	c #C69999",
"C 	c #C49898",
"D 	c #BF9595",
"E 	c #BD9394",
"F 	c #E3B0B1",
"G 	c #E1AFAF",
"H 	c #DDACAB",
"I 	c #DBAAAB",
"J 	c #C89C9B",
"K 	c #C29796",
"L 	c #C09595",
"M 	c #BE9394",
"N 	c #BC9292",
"O 	c #BA9190",
"P 	c #D9AAAA",
"Q 	c #D8A8A7",
"R 	c #D6A6A6",
"S 	c #D4A5A4",
"T 	c #C59899",
"U 	c #C29797",
"V 	c #C19596",
"W 	c #BF9494",
"X 	c #BC9392",
"Y 	c #BA9191",
"Z 	c #B9908F",
"` 	c #B68D8D",
" .	c #D8A8A9",
"..	c #D0A2A2",
"+.	c #C09596",
"@.	c #BF9495",
"#.	c #BD9393",
"$.	c #BB9191",
"%.	c #B98F90",
"&.	c #B78E8E",
"*.	c #B58D8D",
"=.	c #B38B8B",
"-.	c #D5A6A5",
";.	c #D3A4A4",
">.	c #D1A2A2",
",.	c #BB9292",
"'.	c #B99090",
").	c #B88E8F",
"!.	c #B48B8B",
"~.	c #B28A8A",
"{.	c #B08889",
"].	c #D3A5A4",
"^.	c #D0A1A1",
"/.	c #CC9F9E",
"(.	c #C99D9D",
"_.	c #B88F8F",
":.	c #B68E8D",
"<.	c #B48B8C",
"[.	c #B28B8A",
"}.	c #AE8788",
"|.	c #AC8686",
"1.	c #CEA0A0",
"2.	c #C89B9B",
"3.	c #B78E8D",
"4.	c #B58C8C",
"5.	c #B38A8A",
"6.	c #B08989",
"7.	c #AD8686",
"8.	c #AB8485",
"9.	c #A98483",
"0.	c #CB9E9D",
"a.	c #C69A9B",
"b.	c #C39797",
"c.	c #B1898A",
"d.	c #AF8888",
"e.	c #AB8585",
"f.	c #A98383",
"g.	c #A88282",
"h.	c #A58181",
"i.	c #CB9D9E",
"j.	c #C59999",
"k.	c #B08888",
"l.	c #AD8787",
"m.	c #AB8586",
"n.	c #AA8383",
"o.	c #A78282",
"p.	c #A68080",
"q.	c #A4807F",
"r.	c #A27E7E",
"s.	c #C19697",
"t.	c #BF9594",
"u.	c #AA8485",
"v.	c #A88383",
"w.	c #A68182",
"x.	c #A07D7C",
"y.	c #9E7B7B",
"z.	c #BE9493",
"A.	c #A58080",
"B.	c #A37F7F",
"C.	c #A17D7D",
"D.	c #9F7C7C",
"E.	c #9D7A7A",
"F.	c #9B7879",
"G.	c #BE9494",
"H.	c #BD9392",
"I.	c #B89090",
"J.	c #B68E8E",
"K.	c #A07C7C",
"L.	c #9D7A7B",
"M.	c #9C7979",
"N.	c #9A7777",
"O.	c #987676",
"P.	c #BD9293",
"Q.	c #BB9291",
"R.	c #B58D8C",
"S.	c #B38B8C",
"T.	c #B18A8A",
"U.	c #9E7B7A",
"V.	c #9C7A79",
"W.	c #9A7877",
"X.	c #987677",
"Y.	c #977475",
"Z.	c #947473",
"`.	c #B99091",
" +	c #B78F8F",
".+	c #B08988",
"++	c #AE8787",
"@+	c #9D7979",
"#+	c #9A7878",
"$+	c #967575",
"%+	c #957474",
"&+	c #937272",
"*+	c #917170",
"=+	c #B48C8C",
"-+	c #B38A8B",
";+	c #AE8888",
">+	c #AA8484",
",+	c #9B7979",
"'+	c #997777",
")+	c #937373",
"!+	c #917171",
"~+	c #8F706F",
"{+	c #8E6E6E",
"]+	c #AA8584",
"^+	c #A98384",
"/+	c #987675",
"(+	c #967475",
"_+	c #947373",
":+	c #927171",
"<+	c #907070",
"[+	c #8C6D6D",
"}+	c #8A6B6B",
"|+	c #A47F7F",
"1+	c #927272",
"2+	c #917070",
"3+	c #8E6F6E",
"4+	c #8B6B6B",
"5+	c #896A6B",
"6+	c #876969",
"7+	c #AC8585",
"8+	c #A98484",
"9+	c #A68181",
"0+	c #A48080",
"a+	c #A07C7D",
"b+	c #907171",
"c+	c #8F6F6F",
"d+	c #8D6D6E",
"e+	c #8B6C6C",
"f+	c #8A6A6A",
"g+	c #886969",
"h+	c #856768",
"i+	c #836666",
"j+	c #A98283",
"k+	c #A37F7E",
"l+	c #9F7B7B",
"m+	c #9C7A7A",
"n+	c #8D6E6D",
"o+	c #856868",
"p+	c #846767",
"q+	c #816465",
"r+	c #806364",
"s+	c #A58081",
"t+	c #A37E7E",
"u+	c #88696A",
"v+	c #866868",
"w+	c #846766",
"x+	c #826566",
"y+	c #806464",
"z+	c #7F6362",
"A+	c #7C6161",
"B+	c #A27D7D",
"C+	c #9E7A7A",
"D+	c #9B7978",
"E+	c #967574",
"F+	c #876868",
"G+	c #856767",
"H+	c #836566",
"I+	c #816464",
"J+	c #7F6263",
"K+	c #7D6261",
"L+	c #7B6060",
"M+	c #795E5E",
"N+	c #9E7A7B",
"O+	c #9B7877",
"P+	c #977575",
"Q+	c #826465",
"R+	c #7F6363",
"S+	c #7E6261",
"T+	c #7C6060",
"U+	c #795F5F",
"V+	c #785D5D",
"W+	c #765C5B",
"X+	c #9B7878",
"Y+	c #957373",
"Z+	c #8F6F70",
"`+	c #7E6162",
" @	c #7C6160",
".@	c #7A5F5F",
"+@	c #765C5C",
"@@	c #745A5A",
"#@	c #735959",
"$@	c #977576",
"%@	c #937372",
"&@	c #906F6F",
"*@	c #8B6D6D",
"=@	c #7A5F60",
"-@	c #775C5C",
";@	c #755B5A",
">@	c #735A59",
",@	c #8E6E6F",
"'@	c #886A6A",
")@	c #7B5F5F",
"!@	c #775C5D",
"~@	c #755B5B",
"{@	c #725959",
"]@	c #907071",
"^@	c #8E6F6F",
"/@	c #896B6A",
"(@	c #826565",
"_@	c #7D6161",
":@	c #7B5F60",
"<@	c #7A5E5F",
"[@	c #755C5B",
"}@	c #72595A",
"|@	c #725A59",
"1@	c #8D6E6E",
"2@	c #896B6B",
"3@	c #846666",
"4@	c #7F6463",
"5@	c #7E6262",
"6@	c #785E5E",
"7@	c #73595A",
"8@	c #886A69",
"9@	c #7D6061",
"0@	c #7B605F",
"a@	c #735A5A",
"b@	c #795F5E",
"c@	c #775D5D",
"d@	c #765B5C",
"e@	c #7B5E5F",
"f@	c #785D5E",
"                                                                                                        ",
"                                                                                                        ",
"                              . . . . . . . . . . . . . . . . .                                         ",
"                              . + + + + + + + + + + + + + + + . . .                                     ",
"                              . + + + + + + + + + + + + + + + + + . .                                   ",
"                              . + + + + + + + + + + + + + + + + + + . .                                 ",
"                              . + + + + + + + + + + + + + + + + + + + . .                               ",
"                              . + + + + + + + + + + + + + + + + + + + @ . .                             ",
"                              . + + + + + + + + + + + + + + + + + + # $ % .                             ",
"                              . + + + + + + + + + + + + + + + + & * = - ; .                             ",
"                              . + + + + + + + . . . . . . + & > , ' ) ! ~ .                             ",
"                              . + + + + + + + .         . . { ' ] ^ / ( _ . .                           ",
"                              . + + + + + + + .           . : < / [ } | 1 2 .                           ",
"                              . + + + + + + + .           . 3 4 5 6 7 2 8 9 .                           ",
"                              . + + + + + + + .           . 5 6 0 2 a b c d .                           ",
"                              . + + + + + e f .           . g h i 8 j k l m .                           ",
"                              . + + + n o p q .           . r 8 j s t u v w .                           ",
"                              . + e o * q x y .           . z s A B C w D E .                           ",
"                              . F G q H I 3 4 .           . J l C K L M N O .                           ",
"                              . { ' ) P Q R S .           . T U V W X Y Z ` .                           ",
"                              . ; <  .( } g ...           . +.@.#.$.%.&.*.=..                           ",
"                              . / 4 -.;.>.2 8 .           . #.,.'.).` !.~.{..                           ",
"                              . 5 ].7 ^.8 /.(..           . '._.:.<.[.{.}.|..                           ",
"                              . 0 ..1./.c 2.B .           . 3.4.5.6.}.7.8.9..                           ",
"                              . 1./.0.d a.u b..           . =.c.d.7.e.f.g.h..                           ",
"                              . i.s A j.v w D .           . k.l.m.n.o.p.q.r..                           ",
"                              . 2.j.v s.t.#.,..           . |.u.v.w.q.r.x.y..                           ",
"                              . u U L z.N Y _..           . f.o.A.B.C.D.E.F..                           ",
"                              . +.G.H.$.I.J.4..           . h.B.C.K.L.M.N.O..                           ",
"                              . P.Q.'._.R.S.T..           . r.x.U.V.W.X.Y.Z..                           ",
"                              . `. +:.<.T..+++.           . y.@+#+O.$+%+&+*+.                           ",
"                              . :.=+-+6.;+|.>+.           . ,+'+O.%+)+!+~+{+.                           ",
"                              . =.6.}.7.]+^+o..           . /+(+_+:+<+{+[+}+.                           ",
"                              . d.7.e.9.o.h.|+.           . Z.1+2+3+[+4+5+6+.                           ",
"                              . 7+8+v.9+0+r.a+.           . b+c+d+e+f+g+h+i+.                           ",
"                              . j+9+q.k+x.l+m+.           . n+[+}+g+o+p+q+r+.                           ",
"                              . s+t+C.l+E.,+'+.           . }+u+v+w+x+y+z+A+.                           ",
"                              . B+K.C+D+W.O.E+.           . F+G+H+I+J+K+L+M+.                           ",
"                              . N+M.O+X.P+%+1+.           . i+Q+R+S+T+U+V+W+.                           ",
"                              . X+'+P+Y+&+!+Z+.           . r+`+ @.@V++@@@#@.                           ",
"                              . $@%+%@:+&@{+*@.         . . A+=@M+-@;@>@#@. .                           ",
"                              . _+:+<+,@[+e+'@. . . . . . )@M+!@~@>@{@>@{@.                             ",
"                              . ]@^@n+e+/@6+G+i+(@R+_@:@<@V+[@@@#@}@}@|@#@.                             ",
"                              . 1@e+2@g+o+3@(@4@5@T+<@6@-@@@#@7@#@#@}@#@#@.                             ",
"                              . }+8@v+w+(@y+5@9@)@V++@~@>@7@7@{@{@#@#@7@. .                             ",
"                              . F+p+(@I+5@A+0@M+!@~@a@{@#@#@>@#@7@}@#@. .                               ",
"                              . i+I+z+K+L+b@c@[@7@#@7@7@a@#@>@{@{@}@7@.                                 ",
"                              . R+S+T+.@V+d@@@}@#@7@{@>@#@#@{@|@{@. . .                                 ",
"                              . T+e@f@+@;@7@#@{@#@{@#@{@{@#@#@. . .                                     ",
"                              . . . . . . . . . . . . . . . . .                                         ",
"                                                                                                        ",
"                                                                                                        "};
