/* XPM */
const char* icon_static_small_xpm[] = {
"16 16 62 1",
" 	c None",
".	c #0C170C",
"+	c #529352",
"@	c #5EA95E",
"#	c #62B062",
"$	c #5AA15A",
"%	c #000100",
"&	c #7EE27E",
"*	c #80E580",
"=	c #559955",
"-	c #000000",
";	c #376337",
">	c #315831",
",	c #579E57",
"'	c #7EE07D",
")	c #78D778",
"!	c #101E11",
"~	c #68BB68",
"{	c #77D577",
"]	c #73CC72",
"^	c #305630",
"/	c #366136",
"(	c #6CC16C",
"_	c #599F59",
":	c #559755",
"<	c #7ADA7A",
"[	c #407340",
"}	c #66B666",
"|	c #74CF74",
"1	c #6FC66F",
"2	c #356035",
"3	c #508F50",
"4	c #69BC69",
"5	c #65B465",
"6	c #3C6C3C",
"7	c #4B864B",
"8	c #264426",
"9	c #437843",
"0	c #549654",
"a	c #4F8E4F",
"b	c #478048",
"c	c #2A4C2B",
"d	c #4F8C4E",
"e	c #4A8349",
"f	c #1E361E",
"g	c #3F723F",
"h	c #5BA35B",
"i	c #498249",
"j	c #447944",
"k	c #1B301B",
"l	c #4A854A",
"m	c #172917",
"n	c #437743",
"o	c #407341",
"p	c #1F381F",
"q	c #4E8C4E",
"r	c #467E46",
"s	c #427642",
"t	c #356036",
"u	c #407440",
"v	c #3F713F",
"w	c #376437",
"                ",
"     .+@#$%     ",
"     &****=-    ",
"    ;**>,')!    ",
"    ;*~  {]^    ",
"    /*(% _:     ",
"     <<[-       ",
"     }|12-      ",
"      3456-     ",
"       7@$8     ",
"    --- 90a-    ",
"    >bc  def    ",
"    gh;  ijk    ",
"     =l-mnop    ",
"     q7rs[t     ",
"      ugvw      "};
