/* XPM */
const char* icon_cursor_xpm[] = {
"52 52 14 1",
" 	c None",
".	c #000000",
"+	c #1B1B1B",
"@	c #FFFFFF",
"#	c #151515",
"$	c #121212",
"%	c #101010",
"&	c #0E0E0E",
"*	c #0F0F0F",
"=	c #040404",
"-	c #030303",
";	c #1A1A1A",
">	c #181818",
",	c #131313",
"                                                    ",
"                                                    ",
"                                                    ",
"                                                    ",
"                                                    ",
"                                                    ",
"                                                    ",
"              ..                                    ",
"              ..                                    ",
"              ..++                                  ",
"              ..++                                  ",
"              ..@@##                                ",
"              ..@@##                                ",
"              ..@@@@$$                              ",
"              ..@@@@$$                              ",
"              ..@@@@@@%%                            ",
"              ..@@@@@@%%                            ",
"              ..@@@@@@@@&&                          ",
"              ..@@@@@@@@&&                          ",
"              ..@@@@@@@@@@&&                        ",
"              ..@@@@@@@@@@&&                        ",
"              ..@@@@@@@@@@@@&&                      ",
"              ..@@@@@@@@@@@@&&                      ",
"              ..@@@@@@@@@@@@@@**                    ",
"              ..@@@@@@@@@@@@@@**                    ",
"              ..@@@@@@@@@@@@@@@@%%                  ",
"              ..@@@@@@@@@@@@@@@@%%                  ",
"              ..@@@@@@@@@@@@@@@@@@==                ",
"              ..@@@@@@@@@@@@@@@@@@==                ",
"              ..@@@@@@@@@@@@........==              ",
"              ..@@@@@@@@@@@@........==              ",
"              ..@@@@@@@@@@@@..                      ",
"              ..@@@@@@@@@@@@..                      ",
"              ..@@@@..--@@@@..                      ",
"              ..@@@@..--@@@@..                      ",
"              ..@@;;    ..@@@@..                    ",
"              ..@@;;    ..@@@@..                    ",
"              ..>>      ..@@@@&&                    ",
"              ..>>      ..@@@@&&                    ",
"              ..        ..@@@@..                    ",
"              ..        ..@@@@..                    ",
"                        ..&&..,,                    ",
"                        ..&&..,,                    ",
"                                                    ",
"                                                    ",
"                                                    ",
"                                                    ",
"                                                    ",
"                                                    ",
"                                                    ",
"                                                    ",
"                                                    "};
