/* XPM */
const char* icon_static_xpm[] = {
"52 52 257 2",
"  	c None",
". 	c #000000",
"+ 	c #80E580",
"@ 	c #80E480",
"# 	c #7EE27F",
"$ 	c #7FE47F",
"% 	c #7DE27E",
"& 	c #7CDE7C",
"* 	c #7BDC7B",
"= 	c #7FE37F",
"- 	c #7EE17E",
"; 	c #7BDC7A",
"> 	c #79D879",
", 	c #7EE07D",
"' 	c #7BDE7C",
") 	c #7ADB7A",
"! 	c #78D879",
"~ 	c #77D577",
"{ 	c #7EE37E",
"] 	c #7DDF7D",
"^ 	c #7CDD7B",
"/ 	c #79DA7A",
"( 	c #79D878",
"_ 	c #77D476",
": 	c #75D275",
"< 	c #73CF74",
"[ 	c #79D979",
"} 	c #78D678",
"| 	c #76D476",
"1 	c #75D175",
"2 	c #74CF73",
"3 	c #72CC72",
"4 	c #77D678",
"5 	c #76D376",
"6 	c #75D075",
"7 	c #73CE74",
"8 	c #72CC71",
"9 	c #70C970",
"0 	c #78D677",
"a 	c #76D276",
"b 	c #73CE73",
"c 	c #71CA71",
"d 	c #70C870",
"e 	c #6EC56E",
"f 	c #75D375",
"g 	c #74CF74",
"h 	c #72CD72",
"i 	c #70C86F",
"j 	c #6CC26C",
"k 	c #71C970",
"l 	c #6FC76F",
"m 	c #6EC46D",
"n 	c #6CC16C",
"o 	c #6ABF6A",
"p 	c #7BDB7B",
"q 	c #7DE17D",
"r 	c #7EE37F",
"s 	c #7DE07D",
"t 	c #7BDD7B",
"u 	c #7ADA7A",
"v 	c #76D275",
"w 	c #7EE27E",
"x 	c #7AD97A",
"y 	c #79D778",
"z 	c #77D576",
"A 	c #7AD979",
"B 	c #74D174",
"C 	c #71CB72",
"D 	c #6FC66E",
"E 	c #77D677",
"F 	c #74D074",
"G 	c #71CB71",
"H 	c #6FC56F",
"I 	c #6DC36D",
"J 	c #6CBF6B",
"K 	c #74D075",
"L 	c #72CD73",
"M 	c #70C76F",
"N 	c #6EC46E",
"O 	c #6CC26D",
"P 	c #6BC06B",
"Q 	c #69BD69",
"R 	c #68BA68",
"S 	c #73CC72",
"T 	c #70C971",
"U 	c #6FC770",
"V 	c #6DC46E",
"W 	c #69BC69",
"X 	c #68B967",
"Y 	c #66B766",
"Z 	c #65B465",
"` 	c #6FC66F",
" .	c #6BC16B",
"..	c #6ABE6A",
"+.	c #68BB68",
"@.	c #67B968",
"#.	c #66B666",
"$.	c #64B465",
"%.	c #63B162",
"&.	c #61AE61",
"*.	c #6BC16C",
"=.	c #69BB69",
"-.	c #67B967",
";.	c #66B565",
">.	c #64B364",
",.	c #62B063",
"'.	c #61AD61",
").	c #5FAB60",
"!.	c #5EA85E",
"~.	c #66B867",
"{.	c #62B062",
"].	c #5FAA5F",
"^.	c #5EA85D",
"/.	c #5CA45C",
"(.	c #5BA25B",
"_.	c #65B564",
":.	c #63B263",
"<.	c #62AF61",
"[.	c #60AC60",
"}.	c #5EA95F",
"|.	c #5DA75D",
"1.	c #5BA45C",
"2.	c #5BA25A",
"3.	c #589F59",
"4.	c #579C57",
"5.	c #5EA95E",
"6.	c #5DA65D",
"7.	c #5BA35B",
"8.	c #5AA05A",
"9.	c #589E58",
"0.	c #569955",
"a.	c #539654",
"b.	c #5CA55D",
"c.	c #5AA059",
"d.	c #589D58",
"e.	c #579B57",
"f.	c #559855",
"g.	c #549654",
"h.	c #529352",
"i.	c #569A56",
"j.	c #559755",
"k.	c #539553",
"l.	c #519352",
"m.	c #509050",
"n.	c #4F8D4F",
"o.	c #579C58",
"p.	c #559754",
"q.	c #539453",
"r.	c #519251",
"s.	c #508F50",
"t.	c #4E8C4E",
"u.	c #4D8A4D",
"v.	c #549754",
"w.	c #539352",
"x.	c #519151",
"y.	c #508E50",
"z.	c #4E8C4F",
"A.	c #4D894D",
"B.	c #4B874B",
"C.	c #49834A",
"D.	c #4F8E4F",
"E.	c #4E8B4E",
"F.	c #4D884D",
"G.	c #4B864B",
"H.	c #498349",
"I.	c #488148",
"J.	c #65B565",
"K.	c #64B264",
"L.	c #5FAA60",
"M.	c #4E8B4D",
"N.	c #4C884C",
"O.	c #4B854A",
"P.	c #478047",
"Q.	c #477E46",
"R.	c #60AA5F",
"S.	c #5DA85E",
"T.	c #5CA55C",
"U.	c #4D8B4D",
"V.	c #4C884B",
"W.	c #4A854B",
"X.	c #488249",
"Y.	c #487F47",
"Z.	c #467D45",
"`.	c #457A44",
" +	c #62AF62",
".+	c #5EA75D",
"++	c #5AA15B",
"@+	c #599F59",
"#+	c #4A844A",
"$+	c #488248",
"%+	c #477F47",
"&+	c #457D45",
"*+	c #447944",
"=+	c #437642",
"-+	c #5AA15A",
";+	c #467E47",
">+	c #457C45",
",+	c #437943",
"'+	c #427742",
")+	c #407441",
"!+	c #59A159",
"~+	c #569B57",
"{+	c #569855",
"]+	c #488048",
"^+	c #467E46",
"/+	c #457B45",
"(+	c #417642",
"_+	c #417341",
":+	c #407340",
"<+	c #59A059",
"[+	c #579A56",
"}+	c #559854",
"|+	c #549554",
"1+	c #529251",
"2+	c #467D46",
"3+	c #447B45",
"4+	c #437843",
"5+	c #417542",
"6+	c #407240",
"7+	c #407241",
"8+	c #579D58",
"9+	c #539454",
"0+	c #447A45",
"a+	c #437742",
"b+	c #417541",
"c+	c #407341",
"d+	c #417241",
"e+	c #417340",
"f+	c #569956",
"g+	c #529453",
"h+	c #4F8F4F",
"i+	c #4F8C4E",
"j+	c #427743",
"k+	c #417441",
"l+	c #559955",
"m+	c #4F8E50",
"n+	c #4C894D",
"o+	c #4A8349",
"p+	c #437944",
"q+	c #427642",
"r+	c #417440",
"s+	c #519051",
"t+	c #4B864A",
"u+	c #488047",
"v+	c #427641",
"w+	c #4C874C",
"x+	c #4A854A",
"y+	c #498249",
"z+	c #447B44",
"A+	c #437743",
"B+	c #4C874B",
"C+	c #447A44",
"D+	c #417240",
"E+	c #49844A",
"F+	c #467F46",
"G+	c #457C46",
"H+	c #447943",
"                                                                                                        ",
"                                                                                                        ",
"                                        . . . . . . . . . . . . .                                       ",
"                                    . . . + + + + + + + + + + + . .                                     ",
"                                  . . + + + + + + + + + + + + + + . .                                   ",
"                                . . + + + + + + + + + + + + + + + + . .                                 ",
"                                . + + + + + + + + + + + + + + + + @ # . .                               ",
"                              . . + + + + + + + + + + + + + + + $ % & * .                               ",
"                              . + + + + + + + + + + + + + + + = - & ; > .                               ",
"                              . + + + + + + + + + . . . + + = , ' ) ! ~ . .                             ",
"                              . + + + + + + + + . .   . . { ] ^ / ( _ : < .                             ",
"                              . + + + + + + + . .       . . * [ } | 1 2 3 .                             ",
"                              . + + + + + + + .           . [ 4 5 6 7 8 9 .                             ",
"                              . + + + + + + + .           . 0 a 6 b c d e .                             ",
"                              . + + + + + + + .           . f g h c i e j .                             ",
"                              . + + + + + + + .           . g h k l m n o .                             ",
"                              . + + + + + @ - . .         . . . . . . . . .                             ",
"                              . + + + + $ - & p .                                                       ",
"                              . + + + = q & ) > . .                                                     ",
"                              . . + r s t u ! ~ v . .                                                   ",
"                                . w ] t x y z 1 2 3 . .                                                 ",
"                                . . ; A } 5 B b C d D . .                                               ",
"                                  . > E 5 F b G d H I J . .                                             ",
"                                  . . v K L c M N O P Q R . .                                           ",
"                                    . . S T U V n o W X Y Z . .                                         ",
"                                      . . ` I  ...+.@.#.$.%.&.. .                                       ",
"                                        . . *...=.-.;.>.,.'.).!.. .                                     ",
"                                          . . R ~.Z >.{.'.].^./.(.. .                                   ",
"                                            . . _.:.<.[.}.|.1.2.3.4.. .                                 ",
"                                              . . &.[.5.6.7.8.9.4.0.a..                                 ",
"                                                . . !.b.7.c.d.e.f.g.h.. .                               ",
"                                                  . . (.8.d.i.j.k.l.m.n..                               ",
"                                                    . . o.i.p.q.r.s.t.u.. .                             ",
"                                                      . . v.w.x.y.z.A.B.C..                             ",
"                            . . . . . . . . .           . h.x.D.E.F.G.H.I..                             ",
"                            . J.K.{.'.L.!.b..           . m.n.M.N.O.H.P.Q..                             ",
"                            . >.{.'.R.S.T.(..           . . U.V.W.X.Y.Z.`..                             ",
"                            .  +[.]..+/.++@+.             . B.#+$+%+&+*+=+.                             ",
"                            . [.5.|.1.-+9.4..             . #+I.;+>+,+'+)+.                             ",
"                            . 5.6.7.!+9.~+{+. .           . ]+^+/+,+(+_+:+.                             ",
"                            . . 7.<+d.[+}+|+1+.         . . 2+3+4+5+:+6+7+.                             ",
"                              . <+8+i.p.9+1+s.. .     . . &+0+a+b+c+c+d+e+.                             ",
"                              . o.f+g.g+x.h+i+A.. . . . >+*+j+k+:+7+6+:+6+.                             ",
"                              . l+g.g+x.m+t.n+G.o+I.^+>+p+q+r+c+c+:+:+:+. .                             ",
"                              . . h.s+D.M.N.t+C.u+2+3+4+v+c+:+:+e+c+c+7+.                               ",
"                                . m.n.U.w+x+y+]+2+z+A+b+:+:+:+e+6+e+c+. .                               ",
"                                . . u.B+#+y+%+2+C+A+b+6+:+6+6+:+:+D+. .                                 ",
"                                  . . E+I.F+G+H+'+k+7+:+c+:+e+c+:+. .                                   ",
"                                    . . . /+,+q+_+:+:+c+:+6+:+. . .                                     ",
"                                        . . . . . . . . . . . .                                         ",
"                                                                                                        ",
"                                                                                                        "};
