/* XPM */
const char* icon_dynamic_small_xpm[] = {
"16 16 66 1",
" 	c None",
".	c #AD8787",
"+	c #AB8686",
"@	c #AC8686",
"#	c #675151",
"$	c #080808",
"%	c #E5B2B2",
"&	c #826666",
"*	c #997777",
"=	c #A68282",
"-	c #E4B1B1",
";	c #DDACAC",
">	c #C79A9A",
",	c #D2A3A3",
"'	c #483939",
")	c #E2AFAF",
"!	c #BE9494",
"~	c #C79B9B",
"{	c #584645",
"]	c #D6A6A6",
"^	c #B58C8C",
"/	c #BC9292",
"(	c #544141",
"_	c #CB9E9E",
":	c #A98484",
"<	c #B1898A",
"[	c #4F3E3E",
"}	c #C79B9A",
"|	c #BF9595",
"1	c #9F7C7C",
"2	c #A68180",
"3	c #4A3A3A",
"4	c #BB9292",
"5	c #B58D8D",
"6	c #957474",
"7	c #9B7879",
"8	c #453737",
"9	c #B08989",
"0	c #AA8484",
"a	c #8C6C6C",
"b	c #907070",
"c	c #403333",
"d	c #A68181",
"e	c #9F7B7B",
"f	c #826465",
"g	c #856767",
"h	c #3C2F30",
"i	c #9B7878",
"j	c #947373",
"k	c #0A0A0A",
"l	c #765C5C",
"m	c #7A5F5F",
"n	c #322828",
"o	c #8A6B6B",
"p	c #392D2D",
"q	c #3F3132",
"r	c #72595A",
"s	c #7E6161",
"t	c #785D5D",
"u	c #745A5B",
"v	c #735959",
"w	c #594545",
"x	c #795D5E",
"y	c #725958",
"z	c #715757",
"A	c #5F4B4B",
"                ",
"     .++@#$     ",
"     %%%%%&$    ",
"     %%*=-;$    ",
"     %%  >,'    ",
"     %)  !~{    ",
"     ;]  ^/(    ",
"     ,_  :<[    ",
"     }|  123    ",
"     45  678    ",
"     90  abc    ",
"     de  fgh    ",
"     ij$klmn    ",
"     bopqlr$    ",
"     gstuvw     ",
"     xyzzA      "};
